<mxfile host="app.diagrams.net" modified="2024-03-17T00:24:07.129Z" agent="Mozilla/5.0 (Windows NT 10.0; Win64; x64; rv:124.0) Gecko/20100101 Firefox/124.0" etag="N0xdzG4QqBhomFAw-wHj" version="24.0.7" type="device">
  <diagram name="Pagina-1" id="Twiw_gL7MmrlaIyVXy-w">
    <mxGraphModel dx="1050" dy="558" grid="1" gridSize="10" guides="1" tooltips="1" connect="1" arrows="1" fold="1" page="1" pageScale="1" pageWidth="827" pageHeight="1169" math="0" shadow="0">
      <root>
        <mxCell id="0" />
        <mxCell id="1" parent="0" />
        <mxCell id="RKjUegYQJ1Zl-v0uKnGO-1" value="" style="whiteSpace=wrap;html=1;aspect=fixed;" vertex="1" parent="1">
          <mxGeometry x="40" y="289.5" width="190" height="190" as="geometry" />
        </mxCell>
        <mxCell id="RKjUegYQJ1Zl-v0uKnGO-2" value="" style="rounded=0;whiteSpace=wrap;html=1;" vertex="1" parent="1">
          <mxGeometry x="40" y="289.5" width="190" height="40" as="geometry" />
        </mxCell>
        <mxCell id="RKjUegYQJ1Zl-v0uKnGO-3" value="&lt;div style=&quot;font-size: 13px;&quot; align=&quot;center&quot;&gt;&lt;font style=&quot;font-size: 18px;&quot;&gt;LoginControl&lt;/font&gt;&lt;/div&gt;" style="text;html=1;whiteSpace=wrap;overflow=hidden;rounded=0;align=center;" vertex="1" parent="1">
          <mxGeometry x="45" y="294.5" width="180" height="30" as="geometry" />
        </mxCell>
        <mxCell id="RKjUegYQJ1Zl-v0uKnGO-4" value="&lt;div align=&quot;left&quot;&gt;&lt;font style=&quot;font-size: 13px;&quot;&gt;- formFields: array&lt;br&gt;&lt;/font&gt;&lt;/div&gt;" style="text;html=1;align=left;verticalAlign=middle;whiteSpace=wrap;rounded=0;" vertex="1" parent="1">
          <mxGeometry x="50" y="333.5" width="150" height="30" as="geometry" />
        </mxCell>
        <mxCell id="RKjUegYQJ1Zl-v0uKnGO-5" value="" style="rounded=0;whiteSpace=wrap;html=1;" vertex="1" parent="1">
          <mxGeometry x="40" y="369.5" width="190" height="110" as="geometry" />
        </mxCell>
        <mxCell id="RKjUegYQJ1Zl-v0uKnGO-6" value="&lt;div align=&quot;left&quot;&gt;+&amp;nbsp; __construct()&lt;/div&gt;" style="text;html=1;align=left;verticalAlign=middle;whiteSpace=wrap;rounded=0;" vertex="1" parent="1">
          <mxGeometry x="40" y="369.5" width="160" height="30" as="geometry" />
        </mxCell>
        <mxCell id="RKjUegYQJ1Zl-v0uKnGO-7" value="+&amp;nbsp; verifyLogin(): bool" style="text;html=1;align=left;verticalAlign=middle;whiteSpace=wrap;rounded=0;" vertex="1" parent="1">
          <mxGeometry x="40" y="399.5" width="150" height="30" as="geometry" />
        </mxCell>
        <mxCell id="RKjUegYQJ1Zl-v0uKnGO-8" value="" style="whiteSpace=wrap;html=1;aspect=fixed;" vertex="1" parent="1">
          <mxGeometry x="40" y="40" width="190" height="190" as="geometry" />
        </mxCell>
        <mxCell id="RKjUegYQJ1Zl-v0uKnGO-9" value="" style="rounded=0;whiteSpace=wrap;html=1;" vertex="1" parent="1">
          <mxGeometry x="40" y="40" width="190" height="40" as="geometry" />
        </mxCell>
        <mxCell id="RKjUegYQJ1Zl-v0uKnGO-10" value="&lt;div style=&quot;font-size: 13px;&quot; align=&quot;center&quot;&gt;&lt;font style=&quot;font-size: 18px;&quot;&gt;Login&lt;/font&gt;&lt;/div&gt;" style="text;html=1;whiteSpace=wrap;overflow=hidden;rounded=0;align=center;" vertex="1" parent="1">
          <mxGeometry x="45" y="45" width="180" height="30" as="geometry" />
        </mxCell>
        <mxCell id="RKjUegYQJ1Zl-v0uKnGO-12" value="" style="rounded=0;whiteSpace=wrap;html=1;" vertex="1" parent="1">
          <mxGeometry x="40" y="120" width="190" height="110" as="geometry" />
        </mxCell>
        <mxCell id="RKjUegYQJ1Zl-v0uKnGO-14" value="#&amp;nbsp; getMember()" style="text;html=1;align=left;verticalAlign=middle;whiteSpace=wrap;rounded=0;" vertex="1" parent="1">
          <mxGeometry x="40" y="120" width="150" height="30" as="geometry" />
        </mxCell>
        <mxCell id="RKjUegYQJ1Zl-v0uKnGO-22" value="" style="endArrow=classic;html=1;rounded=0;" edge="1" parent="1">
          <mxGeometry width="50" height="50" relative="1" as="geometry">
            <mxPoint x="140" y="290" as="sourcePoint" />
            <mxPoint x="140" y="240" as="targetPoint" />
          </mxGeometry>
        </mxCell>
        <mxCell id="RKjUegYQJ1Zl-v0uKnGO-24" value="" style="whiteSpace=wrap;html=1;aspect=fixed;" vertex="1" parent="1">
          <mxGeometry x="280" y="40" width="190" height="190" as="geometry" />
        </mxCell>
        <mxCell id="RKjUegYQJ1Zl-v0uKnGO-18" value="&lt;font style=&quot;font-size: 18px;&quot;&gt;Rebounds&lt;/font&gt;" style="text;html=1;whiteSpace=wrap;overflow=hidden;rounded=0;align=center;" vertex="1" parent="1">
          <mxGeometry x="285" y="44" width="180" height="33.5" as="geometry" />
        </mxCell>
        <mxCell id="RKjUegYQJ1Zl-v0uKnGO-15" value="" style="rounded=0;whiteSpace=wrap;html=1;" vertex="1" parent="1">
          <mxGeometry x="280" y="82.5" width="190" height="147.5" as="geometry" />
        </mxCell>
        <mxCell id="RKjUegYQJ1Zl-v0uKnGO-26" value="&lt;div align=&quot;left&quot;&gt;-&amp;nbsp; reboundLogin()&lt;br&gt;&lt;/div&gt;" style="text;html=1;align=left;verticalAlign=middle;whiteSpace=wrap;rounded=0;" vertex="1" parent="1">
          <mxGeometry x="285" y="82.5" width="175" height="30" as="geometry" />
        </mxCell>
        <mxCell id="RKjUegYQJ1Zl-v0uKnGO-27" value="&lt;div align=&quot;left&quot;&gt;-&amp;nbsp; reboundSignup()&lt;br&gt;&lt;/div&gt;" style="text;html=1;align=left;verticalAlign=middle;whiteSpace=wrap;rounded=0;" vertex="1" parent="1">
          <mxGeometry x="285" y="112.5" width="175" height="30" as="geometry" />
        </mxCell>
        <mxCell id="RKjUegYQJ1Zl-v0uKnGO-28" value="" style="whiteSpace=wrap;html=1;aspect=fixed;" vertex="1" parent="1">
          <mxGeometry x="282" y="289" width="190" height="190" as="geometry" />
        </mxCell>
        <mxCell id="RKjUegYQJ1Zl-v0uKnGO-30" value="" style="rounded=0;whiteSpace=wrap;html=1;" vertex="1" parent="1">
          <mxGeometry x="282" y="331.5" width="190" height="147.5" as="geometry" />
        </mxCell>
        <mxCell id="RKjUegYQJ1Zl-v0uKnGO-31" value="&lt;div align=&quot;left&quot;&gt;-&amp;nbsp; emptyCheck(): bool&lt;br&gt;&lt;/div&gt;" style="text;html=1;align=left;verticalAlign=middle;whiteSpace=wrap;rounded=0;" vertex="1" parent="1">
          <mxGeometry x="287" y="331.5" width="175" height="30" as="geometry" />
        </mxCell>
        <mxCell id="RKjUegYQJ1Zl-v0uKnGO-32" value="&lt;div align=&quot;left&quot;&gt;-&amp;nbsp; invalidCheck(): bool&lt;br&gt;&lt;/div&gt;" style="text;html=1;align=left;verticalAlign=middle;whiteSpace=wrap;rounded=0;" vertex="1" parent="1">
          <mxGeometry x="287" y="361.5" width="175" height="30" as="geometry" />
        </mxCell>
        <mxCell id="RKjUegYQJ1Zl-v0uKnGO-20" value="&lt;font style=&quot;font-size: 18px;&quot;&gt;Validators&lt;/font&gt;" style="text;html=1;whiteSpace=wrap;overflow=hidden;rounded=0;align=center;" vertex="1" parent="1">
          <mxGeometry x="286.5" y="294" width="180" height="30" as="geometry" />
        </mxCell>
        <mxCell id="RKjUegYQJ1Zl-v0uKnGO-33" value="" style="endArrow=classic;html=1;rounded=0;" edge="1" parent="1">
          <mxGeometry width="50" height="50" relative="1" as="geometry">
            <mxPoint x="230" y="346" as="sourcePoint" />
            <mxPoint x="280" y="346" as="targetPoint" />
          </mxGeometry>
        </mxCell>
        <mxCell id="RKjUegYQJ1Zl-v0uKnGO-34" value="" style="endArrow=classic;html=1;rounded=0;exitX=1;exitY=0;exitDx=0;exitDy=0;" edge="1" parent="1" source="RKjUegYQJ1Zl-v0uKnGO-2">
          <mxGeometry width="50" height="50" relative="1" as="geometry">
            <mxPoint x="390" y="340" as="sourcePoint" />
            <mxPoint x="280" y="240" as="targetPoint" />
          </mxGeometry>
        </mxCell>
        <mxCell id="RKjUegYQJ1Zl-v0uKnGO-36" value="" style="endArrow=classic;html=1;rounded=0;exitX=1.011;exitY=0.326;exitDx=0;exitDy=0;exitPerimeter=0;" edge="1" parent="1" source="RKjUegYQJ1Zl-v0uKnGO-8">
          <mxGeometry width="50" height="50" relative="1" as="geometry">
            <mxPoint x="390" y="340" as="sourcePoint" />
            <mxPoint x="270" y="102" as="targetPoint" />
          </mxGeometry>
        </mxCell>
        <mxCell id="RKjUegYQJ1Zl-v0uKnGO-37" value="traits" style="text;html=1;align=center;verticalAlign=middle;whiteSpace=wrap;rounded=0;" vertex="1" parent="1">
          <mxGeometry x="280" y="40" width="60" height="30" as="geometry" />
        </mxCell>
        <mxCell id="RKjUegYQJ1Zl-v0uKnGO-38" value="traits" style="text;html=1;align=center;verticalAlign=middle;whiteSpace=wrap;rounded=0;" vertex="1" parent="1">
          <mxGeometry x="280" y="289.5" width="60" height="30" as="geometry" />
        </mxCell>
        <mxCell id="RKjUegYQJ1Zl-v0uKnGO-39" value="" style="whiteSpace=wrap;html=1;aspect=fixed;" vertex="1" parent="1">
          <mxGeometry x="520" y="40" width="190" height="190" as="geometry" />
        </mxCell>
        <mxCell id="RKjUegYQJ1Zl-v0uKnGO-40" value="" style="rounded=0;whiteSpace=wrap;html=1;" vertex="1" parent="1">
          <mxGeometry x="520" y="40" width="190" height="40" as="geometry" />
        </mxCell>
        <mxCell id="RKjUegYQJ1Zl-v0uKnGO-41" value="&lt;font style=&quot;font-size: 18px;&quot;&gt;Signup&lt;/font&gt;" style="text;html=1;whiteSpace=wrap;overflow=hidden;rounded=0;align=center;" vertex="1" parent="1">
          <mxGeometry x="525" y="45" width="180" height="30" as="geometry" />
        </mxCell>
        <mxCell id="RKjUegYQJ1Zl-v0uKnGO-42" value="" style="rounded=0;whiteSpace=wrap;html=1;" vertex="1" parent="1">
          <mxGeometry x="520" y="120" width="190" height="110" as="geometry" />
        </mxCell>
        <mxCell id="RKjUegYQJ1Zl-v0uKnGO-43" value="#&amp;nbsp; verifyMember(): bool" style="text;html=1;align=left;verticalAlign=middle;whiteSpace=wrap;rounded=0;" vertex="1" parent="1">
          <mxGeometry x="520" y="120" width="150" height="30" as="geometry" />
        </mxCell>
        <mxCell id="RKjUegYQJ1Zl-v0uKnGO-44" value="#&amp;nbsp; setMember()" style="text;html=1;align=left;verticalAlign=middle;whiteSpace=wrap;rounded=0;" vertex="1" parent="1">
          <mxGeometry x="520" y="150" width="150" height="30" as="geometry" />
        </mxCell>
        <mxCell id="RKjUegYQJ1Zl-v0uKnGO-45" value="" style="whiteSpace=wrap;html=1;aspect=fixed;" vertex="1" parent="1">
          <mxGeometry x="525" y="289" width="190" height="190" as="geometry" />
        </mxCell>
        <mxCell id="RKjUegYQJ1Zl-v0uKnGO-46" value="" style="rounded=0;whiteSpace=wrap;html=1;" vertex="1" parent="1">
          <mxGeometry x="525" y="289" width="190" height="40" as="geometry" />
        </mxCell>
        <mxCell id="RKjUegYQJ1Zl-v0uKnGO-47" value="&lt;div style=&quot;font-size: 13px;&quot; align=&quot;center&quot;&gt;&lt;font style=&quot;font-size: 18px;&quot;&gt;SignupControl&lt;/font&gt;&lt;/div&gt;" style="text;html=1;whiteSpace=wrap;overflow=hidden;rounded=0;align=center;" vertex="1" parent="1">
          <mxGeometry x="530" y="294" width="180" height="30" as="geometry" />
        </mxCell>
        <mxCell id="RKjUegYQJ1Zl-v0uKnGO-48" value="&lt;div align=&quot;left&quot;&gt;&lt;font style=&quot;font-size: 13px;&quot;&gt;- formFields: array&lt;br&gt;&lt;/font&gt;&lt;/div&gt;" style="text;html=1;align=left;verticalAlign=middle;whiteSpace=wrap;rounded=0;" vertex="1" parent="1">
          <mxGeometry x="535" y="333" width="150" height="30" as="geometry" />
        </mxCell>
        <mxCell id="RKjUegYQJ1Zl-v0uKnGO-49" value="" style="rounded=0;whiteSpace=wrap;html=1;" vertex="1" parent="1">
          <mxGeometry x="525" y="369" width="190" height="110" as="geometry" />
        </mxCell>
        <mxCell id="RKjUegYQJ1Zl-v0uKnGO-50" value="&lt;div align=&quot;left&quot;&gt;+&amp;nbsp; __construct()&lt;/div&gt;" style="text;html=1;align=left;verticalAlign=middle;whiteSpace=wrap;rounded=0;" vertex="1" parent="1">
          <mxGeometry x="525" y="369" width="160" height="30" as="geometry" />
        </mxCell>
        <mxCell id="RKjUegYQJ1Zl-v0uKnGO-51" value="+&amp;nbsp; verifySignup(): bool" style="text;html=1;align=left;verticalAlign=middle;whiteSpace=wrap;rounded=0;" vertex="1" parent="1">
          <mxGeometry x="525" y="399" width="150" height="30" as="geometry" />
        </mxCell>
        <mxCell id="RKjUegYQJ1Zl-v0uKnGO-52" value="" style="endArrow=classic;html=1;rounded=0;exitX=0.5;exitY=0;exitDx=0;exitDy=0;" edge="1" parent="1" source="RKjUegYQJ1Zl-v0uKnGO-46">
          <mxGeometry width="50" height="50" relative="1" as="geometry">
            <mxPoint x="620" y="280" as="sourcePoint" />
            <mxPoint x="620" y="240" as="targetPoint" />
          </mxGeometry>
        </mxCell>
        <mxCell id="RKjUegYQJ1Zl-v0uKnGO-53" value="" style="endArrow=classic;html=1;rounded=0;exitX=-0.005;exitY=0.326;exitDx=0;exitDy=0;exitPerimeter=0;entryX=1.016;entryY=0.139;entryDx=0;entryDy=0;entryPerimeter=0;" edge="1" parent="1" source="RKjUegYQJ1Zl-v0uKnGO-39" target="RKjUegYQJ1Zl-v0uKnGO-15">
          <mxGeometry width="50" height="50" relative="1" as="geometry">
            <mxPoint x="390" y="370" as="sourcePoint" />
            <mxPoint x="480" y="130" as="targetPoint" />
          </mxGeometry>
        </mxCell>
        <mxCell id="RKjUegYQJ1Zl-v0uKnGO-54" value="" style="endArrow=classic;html=1;rounded=0;exitX=0;exitY=0;exitDx=0;exitDy=0;" edge="1" parent="1" source="RKjUegYQJ1Zl-v0uKnGO-46">
          <mxGeometry width="50" height="50" relative="1" as="geometry">
            <mxPoint x="390" y="370" as="sourcePoint" />
            <mxPoint x="470" y="240" as="targetPoint" />
          </mxGeometry>
        </mxCell>
        <mxCell id="RKjUegYQJ1Zl-v0uKnGO-55" value="" style="endArrow=classic;html=1;rounded=0;exitX=0.005;exitY=0.342;exitDx=0;exitDy=0;exitPerimeter=0;entryX=1.026;entryY=0.153;entryDx=0;entryDy=0;entryPerimeter=0;" edge="1" parent="1">
          <mxGeometry width="50" height="50" relative="1" as="geometry">
            <mxPoint x="525.95" y="345.98" as="sourcePoint" />
            <mxPoint x="476.94000000000005" y="346.0675" as="targetPoint" />
          </mxGeometry>
        </mxCell>
        <mxCell id="RKjUegYQJ1Zl-v0uKnGO-57" value="1" style="text;html=1;align=center;verticalAlign=middle;whiteSpace=wrap;rounded=0;" vertex="1" parent="1">
          <mxGeometry x="210" y="70" width="60" height="30" as="geometry" />
        </mxCell>
        <mxCell id="RKjUegYQJ1Zl-v0uKnGO-58" value="1" style="text;html=1;align=center;verticalAlign=middle;whiteSpace=wrap;rounded=0;" vertex="1" parent="1">
          <mxGeometry x="200" y="259.5" width="60" height="30" as="geometry" />
        </mxCell>
        <mxCell id="RKjUegYQJ1Zl-v0uKnGO-59" value="1 *" style="text;html=1;align=center;verticalAlign=middle;whiteSpace=wrap;rounded=0;" vertex="1" parent="1">
          <mxGeometry x="210" y="319.5" width="60" height="30" as="geometry" />
        </mxCell>
        <mxCell id="RKjUegYQJ1Zl-v0uKnGO-60" value="1" style="text;html=1;align=center;verticalAlign=middle;whiteSpace=wrap;rounded=0;" vertex="1" parent="1">
          <mxGeometry x="500" y="259" width="60" height="30" as="geometry" />
        </mxCell>
        <mxCell id="RKjUegYQJ1Zl-v0uKnGO-61" value="1" style="text;html=1;align=center;verticalAlign=middle;whiteSpace=wrap;rounded=0;" vertex="1" parent="1">
          <mxGeometry x="475" y="75" width="60" height="30" as="geometry" />
        </mxCell>
        <mxCell id="RKjUegYQJ1Zl-v0uKnGO-62" value="1 *" style="text;html=1;align=center;verticalAlign=middle;whiteSpace=wrap;rounded=0;" vertex="1" parent="1">
          <mxGeometry x="480" y="319.5" width="60" height="30" as="geometry" />
        </mxCell>
        <mxCell id="RKjUegYQJ1Zl-v0uKnGO-63" value="" style="whiteSpace=wrap;html=1;aspect=fixed;" vertex="1" parent="1">
          <mxGeometry x="286.5" y="510" width="190" height="190" as="geometry" />
        </mxCell>
        <mxCell id="RKjUegYQJ1Zl-v0uKnGO-64" value="" style="rounded=0;whiteSpace=wrap;html=1;" vertex="1" parent="1">
          <mxGeometry x="286.5" y="510" width="190" height="40" as="geometry" />
        </mxCell>
        <mxCell id="RKjUegYQJ1Zl-v0uKnGO-65" value="&lt;font style=&quot;font-size: 18px;&quot;&gt;Database&lt;/font&gt;" style="text;html=1;whiteSpace=wrap;overflow=hidden;rounded=0;align=center;" vertex="1" parent="1">
          <mxGeometry x="291.5" y="515" width="180" height="30" as="geometry" />
        </mxCell>
        <mxCell id="RKjUegYQJ1Zl-v0uKnGO-66" value="&lt;div align=&quot;left&quot;&gt;&lt;font style=&quot;font-size: 13px;&quot;&gt;- static dbInstance: recource&lt;br&gt;&lt;/font&gt;&lt;/div&gt;" style="text;html=1;align=left;verticalAlign=middle;whiteSpace=wrap;rounded=0;" vertex="1" parent="1">
          <mxGeometry x="296.5" y="554" width="173.5" height="30" as="geometry" />
        </mxCell>
        <mxCell id="RKjUegYQJ1Zl-v0uKnGO-67" value="" style="rounded=0;whiteSpace=wrap;html=1;" vertex="1" parent="1">
          <mxGeometry x="286.5" y="620" width="190" height="80" as="geometry" />
        </mxCell>
        <mxCell id="RKjUegYQJ1Zl-v0uKnGO-68" value="&lt;div align=&quot;left&quot;&gt;-&amp;nbsp; __construct()&lt;/div&gt;" style="text;html=1;align=left;verticalAlign=middle;whiteSpace=wrap;rounded=0;" vertex="1" parent="1">
          <mxGeometry x="291.5" y="620" width="160" height="30" as="geometry" />
        </mxCell>
        <mxCell id="RKjUegYQJ1Zl-v0uKnGO-69" value="+&amp;nbsp; static getInstance(): recourse" style="text;html=1;align=left;verticalAlign=middle;whiteSpace=wrap;rounded=0;" vertex="1" parent="1">
          <mxGeometry x="291.5" y="645" width="178.5" height="30" as="geometry" />
        </mxCell>
        <mxCell id="RKjUegYQJ1Zl-v0uKnGO-70" value="&lt;div align=&quot;left&quot;&gt;&lt;font style=&quot;font-size: 13px;&quot;&gt;- dbInvoke: object&lt;br&gt;&lt;/font&gt;&lt;/div&gt;" style="text;html=1;align=left;verticalAlign=middle;whiteSpace=wrap;rounded=0;" vertex="1" parent="1">
          <mxGeometry x="298" y="580" width="173.5" height="30" as="geometry" />
        </mxCell>
        <mxCell id="RKjUegYQJ1Zl-v0uKnGO-71" value="+&amp;nbsp; connect(): recourse" style="text;html=1;align=left;verticalAlign=middle;whiteSpace=wrap;rounded=0;" vertex="1" parent="1">
          <mxGeometry x="292.25" y="670" width="178.5" height="30" as="geometry" />
        </mxCell>
        <mxCell id="RKjUegYQJ1Zl-v0uKnGO-76" value="" style="endArrow=none;html=1;rounded=0;entryX=0;entryY=0.75;entryDx=0;entryDy=0;" edge="1" parent="1" target="RKjUegYQJ1Zl-v0uKnGO-64">
          <mxGeometry width="50" height="50" relative="1" as="geometry">
            <mxPoint x="20" y="540" as="sourcePoint" />
            <mxPoint x="280" y="540" as="targetPoint" />
          </mxGeometry>
        </mxCell>
        <mxCell id="RKjUegYQJ1Zl-v0uKnGO-77" value="" style="endArrow=none;html=1;rounded=0;" edge="1" parent="1">
          <mxGeometry width="50" height="50" relative="1" as="geometry">
            <mxPoint x="20" y="540" as="sourcePoint" />
            <mxPoint x="20" y="100" as="targetPoint" />
          </mxGeometry>
        </mxCell>
        <mxCell id="RKjUegYQJ1Zl-v0uKnGO-78" value="" style="endArrow=none;html=1;rounded=0;exitX=0;exitY=0.326;exitDx=0;exitDy=0;exitPerimeter=0;" edge="1" parent="1" source="RKjUegYQJ1Zl-v0uKnGO-8">
          <mxGeometry width="50" height="50" relative="1" as="geometry">
            <mxPoint x="390" y="340" as="sourcePoint" />
            <mxPoint x="20" y="100" as="targetPoint" />
          </mxGeometry>
        </mxCell>
        <mxCell id="RKjUegYQJ1Zl-v0uKnGO-79" value="" style="endArrow=none;html=1;rounded=0;" edge="1" parent="1">
          <mxGeometry width="50" height="50" relative="1" as="geometry">
            <mxPoint x="480" y="540" as="sourcePoint" />
            <mxPoint x="740" y="540" as="targetPoint" />
          </mxGeometry>
        </mxCell>
        <mxCell id="RKjUegYQJ1Zl-v0uKnGO-80" value="" style="endArrow=none;html=1;rounded=0;" edge="1" parent="1">
          <mxGeometry width="50" height="50" relative="1" as="geometry">
            <mxPoint x="740" y="540" as="sourcePoint" />
            <mxPoint x="740" y="100" as="targetPoint" />
          </mxGeometry>
        </mxCell>
        <mxCell id="RKjUegYQJ1Zl-v0uKnGO-81" value="" style="endArrow=none;html=1;rounded=0;exitX=0.989;exitY=0.326;exitDx=0;exitDy=0;exitPerimeter=0;" edge="1" parent="1" source="RKjUegYQJ1Zl-v0uKnGO-39">
          <mxGeometry width="50" height="50" relative="1" as="geometry">
            <mxPoint x="390" y="270" as="sourcePoint" />
            <mxPoint x="740" y="100" as="targetPoint" />
          </mxGeometry>
        </mxCell>
      </root>
    </mxGraphModel>
  </diagram>
</mxfile>
